<svg width="132" height="24" viewBox="0 0 132 24" fill="none"
    xmlns="http://www.w3.org/2000/svg">
    <path d="M59.6038 15.8695C59.5965 15.1846 59.4543 14.5079 59.1855 13.8779C58.9166 13.248 58.5263 12.6771 58.0368 12.198C57.5473 11.7189 56.9683 11.3409 56.3327 11.0856C55.6971 10.8303 55.0174 10.7027 54.3325 10.7101H43.52V5.47606H58.0298V2.8125H40.9961V5.47606V21.178H54.3046C55.0034 21.1855 55.6966 21.0533 56.3435 20.7891C56.9904 20.5248 57.578 20.1339 58.0717 19.6394C58.5654 19.1448 58.9553 18.5565 59.2184 17.9091C59.4815 17.2618 59.6125 16.5683 59.6038 15.8695ZM54.3046 18.5145H43.52V13.2246H54.3046C55.0061 13.2246 55.6788 13.5033 56.1748 13.9993C56.6709 14.4953 56.9495 15.1681 56.9495 15.8695C56.9495 16.571 56.6709 17.2438 56.1748 17.7398C55.6788 18.2358 55.0061 18.5145 54.3046 18.5145Z" fill="#41566D"/>
    <path d="M30.0817 2.8125H19.3623V5.44812H30.1004C31.6018 5.4607 33.0528 5.99115 34.2084 6.94986C35.3639 7.90857 36.1531 9.23677 36.4426 10.7101H22.4729V13.2246H36.4426C36.1569 14.7124 35.362 16.0543 34.1944 17.0196C33.0268 17.985 31.5595 18.5135 30.0445 18.5145H19.3623V21.178H30.0817C32.5172 21.178 34.8528 20.2106 36.5749 18.4885C38.297 16.7664 39.2645 14.4307 39.2645 11.9953C39.2645 9.55985 38.297 7.22418 36.5749 5.50208C34.8528 3.77997 32.5172 2.8125 30.0817 2.8125Z" fill="#41566D"/>
    <path d="M16.1211 11.7997C16.8429 11.0552 17.3291 10.1144 17.5189 9.09501C17.7087 8.07558 17.5936 7.02282 17.188 6.0685C16.7824 5.11417 16.1043 4.30065 15.2387 3.72978C14.373 3.15891 13.3582 2.85604 12.3213 2.85907V5.52263C13.0154 5.52263 13.681 5.79835 14.1718 6.28913C14.6626 6.77991 14.9383 7.44556 14.9383 8.13963C14.9383 8.8337 14.6626 9.49934 14.1718 9.99012C13.681 10.4809 13.0154 10.7566 12.3213 10.7566H2.51455V5.47606H12.3213V2.8125H0V21.178H12.7963C13.884 21.1715 14.9432 20.8298 15.8297 20.1996C16.7162 19.5693 17.3869 18.681 17.7504 17.6558C18.1138 16.6306 18.1524 15.5183 17.8608 14.4704C17.5693 13.4225 16.9618 12.4899 16.1211 11.7997ZM12.7963 18.5611H2.5518V13.2712H12.7963C13.4978 13.2712 14.1705 13.5498 14.6665 14.0459C15.1626 14.5419 15.4412 15.2146 15.4412 15.9161C15.4412 16.6176 15.1626 17.2903 14.6665 17.7864C14.1705 18.2824 13.4978 18.5611 12.7963 18.5611Z" fill="#41566D"/>
    <g opacity="0.5">
        <path d="M72.6602 21.1128H75.4541V18.3189H95.6357V2.78455H72.6602V21.1128ZM75.4541 5.44811H92.879V15.6181H75.4075L75.4541 5.44811Z" fill="#41566D"/>
        <path d="M98.2061 2.78455V18.3189H113.74V21.1128H116.441V18.3189H131.994V2.78455H98.2061ZM113.74 15.6181H100.907V5.48536H113.74V15.6181ZM129.284 15.6181H116.451V5.48536H129.293L129.284 15.6181Z" fill="#41566D"/>
    </g>
    <path opacity="0.5" d="M67.4173 0H64.6699V24H67.4173V0Z" fill="#41566D"/>
</svg>
